<svg width="360" height="360" viewBox="0 0 360 360" fill="none" xmlns="http://www.w3.org/2000/svg">
<path d="M354.306 285.246C353.748 280.01 351.482 275.735 347.861 271.964C344.169 268.124 341.857 263.667 343.073 258.059L343.199 256.81C343.613 251.883 342.23 247.655 338.099 244.696C334.997 242.466 333.712 239.491 333.815 235.777C333.957 230.894 332.825 226.6 329.219 222.91C326.096 219.707 324.93 215.751 326.081 211.069C327.058 207.137 327.412 203.02 327.743 198.966C328 195.807 327.42 192.619 325.745 189.9C324.383 187.681 324.224 185.468 324.362 183.011C324.514 180.419 324.38 177.796 324.245 175.198C324.143 173.199 323.175 171.592 321.472 170.521C319.233 169.118 318.168 167.054 318.029 164.508C317.884 161.582 317.916 158.656 315.919 156.18C315.566 155.749 315.585 154.984 315.514 154.362C314.969 149.332 312.866 144.945 310.091 140.808C308.497 138.422 307.523 135.783 307.298 132.91C306.856 127.335 305.507 121.939 303.569 116.753C301.482 111.176 298.826 105.823 296.554 100.311C295.765 98.4057 295.106 96.3694 294.859 94.3386C294.355 90.1962 294.094 86.0164 293.89 81.8383C293.65 76.8026 293.975 71.8163 295.259 66.8944C296.485 62.1359 297.55 57.3307 298.615 52.5314C298.995 50.7981 299.265 49.0279 299.359 47.2576C299.475 45.1284 299.072 43.0755 297.496 41.4489C295.403 39.2881 293.157 39.2258 291.387 41.6849C289.95 43.7074 288.65 45.9541 287.867 48.2944C286.328 52.8952 284.387 57.2516 281.838 61.3723C280.062 64.2454 279.651 67.3561 280.132 70.7338C281.08 77.2956 280.717 83.6738 276.904 89.473C275.818 91.1271 274.931 92.9284 274.143 94.7492C273.345 96.5595 272.504 98.4348 272.216 100.361C271.522 104.9 270.705 109.495 270.766 114.068C270.851 120.153 270.355 126.15 269.849 132.199C269.429 137.222 267.929 141.561 265.212 145.63C263.49 148.208 262.48 151.073 262.08 154.104C261.599 157.735 261.267 161.378 260.98 165.031C260.854 166.692 260.867 168.385 261.014 170.04C261.734 177.957 262.605 185.861 263.244 193.774C263.392 195.651 263.936 197.666 262.965 199.572L262.331 199.194C259.776 196.763 258.932 193.559 258.008 190.301C255.852 182.66 253.632 175.05 252.503 167.163C252.161 164.782 251.632 162.429 251.269 160.051C250.975 158.105 249.9 156.817 248.225 155.932C247.587 155.599 246.935 155.3 246.201 154.939C246.05 153.462 245.903 152.01 245.753 150.565C245.376 147.041 244.309 143.898 241.523 141.395C240.53 140.512 239.879 138.942 239.643 137.589C239.03 134.096 238.713 130.542 238.35 127.008C238.033 124.082 236.563 121.928 234.183 120.316C233.576 119.913 232.832 119.631 232.356 119.116C231.612 118.313 230.583 117.417 230.465 116.461C230.021 113.057 229.691 109.607 229.74 106.183C229.776 103.484 230.508 100.803 230.778 98.0991C231.262 93.2097 231.811 88.3288 232 83.4245C232.097 80.9173 230.59 79.4551 228.395 78.9147C226.29 78.3809 224.708 78.8938 223.545 81.2991C221.542 85.4269 219.741 89.6754 218.185 93.9803C217.501 95.8896 217.479 98.0778 217.397 100.151C217.268 103.629 217.082 107.098 215.055 110.086C212.863 113.322 212.003 116.927 211.716 120.745C211.673 121.375 211.468 121.996 211.274 122.934C208.793 118.909 208.027 118.611 204.54 120.154C204.302 119.589 204.139 118.977 203.812 118.472C202.348 116.209 200.35 116.183 198.892 118.476C198.28 119.428 197.678 120.503 197.492 121.597C196.797 125.719 196.091 129.849 195.718 134C195.355 138.161 195.558 142.372 195.226 146.534C194.489 155.698 194.404 164.932 192.17 173.94C191.896 175.038 191.936 176.224 191.932 177.368C191.935 183.52 193.191 189.409 195.537 195.091C198.338 201.851 199.493 208.952 199.697 216.229C199.838 220.932 197.805 224.957 195.536 228.874C191.94 235.065 191.07 241.586 192.938 248.525C193.844 251.9 195.17 255.023 197.13 257.919C200.529 262.917 202.437 268.324 201.331 274.49C201.145 275.516 201.069 276.584 201.132 277.619C201.277 280.234 201.64 282.758 203.261 285.043C204.182 286.353 204.793 288.018 205.099 289.612C206.298 295.887 207.306 302.19 208.45 308.474C208.649 309.586 209.068 310.691 209.567 311.71C210.278 313.192 211.421 314.302 213.158 314.381C215.039 314.467 215.928 313.084 216.627 311.643C217.877 309.057 218.593 306.321 218.355 303.437C217.934 298.252 218.739 293.241 219.869 288.214C220.375 285.925 220.295 283.418 220.02 281.069C219.477 276.458 217.657 272.197 215.894 267.937C215.461 266.893 215.072 265.739 215.063 264.63C215.03 259.17 216.15 253.903 219.508 249.553C222.266 245.953 223.02 242.322 221.656 238.117C221.338 237.115 221.223 236.044 220.823 235.083C219.572 232.107 219.426 229.042 219.557 225.856C219.728 221.475 220.018 217.047 219.58 212.703C218.855 205.489 218.791 198.315 219.191 191.104C219.475 186.099 218.619 181.343 216.04 176.923C213.534 172.622 212.822 167.928 213.567 162.973C213.937 160.498 213.929 157.973 214.265 155.492C214.636 152.744 214.719 149.885 216.642 146.807C217.112 148.264 217.56 149.178 217.691 150.125C218.092 153.238 218.443 156.354 218.7 159.469C219.045 163.514 220.52 166.765 224.473 168.444C226.227 169.181 227.305 170.514 227.941 172.276C228.589 174.043 229.821 175.593 231.519 176.024C235.543 177.054 236.75 180.127 237.731 183.521L237.993 184.425C239.856 190.443 242.042 196.244 246.126 201.256C247.775 203.277 248.467 206.102 249.49 208.599C250.172 210.232 250.363 212.134 251.303 213.58C253.159 216.456 253.514 219.586 253.778 222.85C254.365 229.796 256.932 233.399 263.195 233.484C264.742 233.504 265.745 234.26 266.17 235.775C266.605 237.276 267.088 238.767 267.567 240.26C268.818 244.157 270.172 248.022 273.281 250.915C275.097 252.606 277.165 253.395 279.607 252.335C281.616 251.457 282.959 248.994 282.712 246.342C282.499 243.943 282.251 241.525 281.682 239.199C280.133 232.855 280.954 226.756 282.989 220.667C283.57 218.928 283.923 216.984 283.84 215.156C283.685 211.827 283.23 208.496 282.723 205.191C281.809 199.227 281.857 193.485 285.865 188.462L286.359 187.659C289.564 181 290.823 174.209 287.952 167.068C285.754 161.581 285.722 155.848 286.227 150.079C286.325 148.949 286.575 147.831 286.762 146.704C287.516 147.874 287.725 149.004 287.932 150.133C288.582 153.62 290.196 156.389 293.581 157.919C294.428 158.302 295.191 158.898 295.927 159.486C297.732 160.938 298.881 162.739 298.656 165.168C298.455 167.458 298.248 169.744 297.983 172.034C297.47 176.49 296.347 180.976 296.521 185.401C296.769 191.679 298.215 197.844 301.687 203.319C302.396 204.452 303.129 205.668 303.447 206.95C304.155 209.899 304.793 212.886 305.151 215.893C306.339 226.036 310.708 234.424 318.605 240.933C320.654 242.613 321.186 244.68 321.025 247.319C320.809 250.939 320.895 254.612 321.279 258.219C321.682 262.094 323.811 264.8 327.887 265.56L328.517 266.017C328.874 267.957 329.272 270.01 329.619 272.066C330.09 274.798 331.425 276.985 333.817 278.392C335.698 279.507 337.627 280.63 339.665 281.398C341.748 282.189 342.58 283.54 342.69 285.653C342.788 287.635 343.05 289.605 343.281 291.582C343.479 293.24 344.155 294.608 345.892 295.145C347.501 295.642 348.412 294.554 349.365 293.559L349.953 293.413L350.426 293.772C352.558 295.252 353.775 295.344 355.199 294.143C356.615 292.943 356.702 291.556 355.7 289.353C355.101 288.041 354.456 286.648 354.306 285.246Z" fill="#11B0C8"/>
<path d="M187.693 301.331C187.081 297.454 185.496 293.957 182.723 291.047C179.389 287.52 177.353 283.443 177.041 278.484C176.679 272.789 173.414 269.036 168.244 267.038C166.545 266.377 165.34 265.484 164.529 263.935C163.561 262.086 162.456 260.289 161.651 258.372C160.627 255.943 158.841 254.308 156.437 253.776C153.633 253.145 152.397 251.441 151.779 248.937C151.548 248.019 151.236 247.12 151.098 246.189C150.156 240.189 146.877 235.793 141.732 232.758C140.09 231.784 139.272 230.429 138.498 228.749C136.924 225.346 135.488 221.718 133.165 218.871C129.855 214.818 125.691 211.696 119.809 214.019L119.066 213.813C118.355 212.321 117.711 210.66 116.812 209.148C114.614 205.483 113.178 205.159 109.494 207.282L108.989 207.313C108.67 206.651 108.327 205.92 107.965 205.19C106.704 202.668 105.573 200.063 104.138 197.641C102.851 195.467 101.297 193.495 98.256 193.638C97.482 193.675 96.676 192.951 95.309 192.309C96.839 191.246 97.631 190.541 98.543 190.092C101.384 188.674 103.532 186.613 104.606 183.616C105.093 182.267 105.999 181.518 107.216 181.143C108.708 180.687 110.244 180.282 111.793 180.144C115.964 179.769 118.73 177.284 120.759 174.012C122.851 170.64 124.393 166.944 125.043 162.96C125.374 160.899 125.736 159.026 127.859 157.772C128.864 157.179 129.489 155.611 129.857 154.363C130.307 152.777 130.501 151.059 130.482 149.411C130.451 146.545 131.169 144.148 133.229 142.012C137.001 138.135 138.068 133.339 137.188 128.075C136.476 123.823 136.027 119.658 137.607 115.406C139.486 110.373 138.287 105.896 133.985 102.506C132.668 101.469 132.18 100.327 132.405 98.735C132.542 97.804 132.636 96.861 132.679 95.919C132.829 92.691 133.016 89.463 133.035 86.229C133.035 85.342 132.722 84.293 132.192 83.587C128.452 78.623 125.448 77.106 120.172 78.948C119.085 79.329 117.992 79.748 116.869 79.922C115.052 80.221 114.409 79.635 114.215 77.805C114.078 76.456 114.059 75.083 113.784 73.759C113.234 70.981 111.63 69.632 108.776 69.482C107.739 69.425 106.672 69.476 105.654 69.676C102.501 70.294 99.791 69.77 97.231 67.596C95.433 66.054 93.21 64.98 91.081 63.869C87.378 61.933 83.563 60.21 79.885 58.23C77.613 56.994 75.259 56.344 72.704 56.251C71.455 56.201 70.169 56.376 68.945 56.157C64.887 55.427 61.608 56.907 58.499 59.336C55.034 62.04 51.506 64.674 47.884 67.166C43.126 70.444 37.975 72.086 32.174 70.232L30.95 69.982C28.59 69.239 26.46 69.851 24.294 70.862C20.804 72.498 17.9 74.833 15.421 77.724C13.966 79.429 12.486 80.078 10.238 79.048C8.24 78.142 7.085 78.517 6.136 80.085C3.864 83.838 2.396 90.038 7.11 94.508C7.872 95.226 8.634 95.945 9.44 96.612C12.706 99.316 13.148 102.712 11.943 106.552C11.419 108.244 10.838 109.943 10.526 111.678C9.258 118.827 9.815 125.471 15.909 130.573C17.182 131.635 18.269 132.965 19.287 134.288C21.11 136.655 22.484 139.171 21.654 142.387C21.029 144.809 20.761 147.319 20.149 149.736C19.63 151.778 19.63 153.619 20.836 155.443C21.267 156.092 21.573 157.022 21.498 157.772C21.299 159.732 21.717 161.499 22.56 163.235C23.466 165.089 23.54 166.932 22.954 168.992C21.992 172.351 22.361 175.623 24.727 178.451C25.738 179.656 26.65 180.93 27.661 182.135C29.166 183.921 29.909 185.813 29.203 188.211C28.404 190.921 28.822 193.506 30.046 196.109C32.644 201.647 34.33 207.517 34.355 213.655C34.361 217.134 34.692 220.773 32.607 224.002C30.846 226.719 31.851 229.459 33.649 231.531C36.147 234.416 37.315 237.806 38.563 241.254C39.15 242.884 39.013 244.271 38.095 245.713C35.341 250.052 35.191 254.71 36.309 259.606C37.096 263.046 38.644 266.106 40.517 269.003C41.853 271.069 42.858 273.205 43.233 275.615C43.546 277.663 44.357 279.38 45.981 280.741C46.493 281.172 46.992 281.897 47.048 282.54C47.385 285.948 48.197 289.309 47.217 292.806C46.218 296.358 47.042 298.244 50.283 300.173C52.456 301.465 53.255 303.302 53.38 305.599C53.474 307.372 53.355 309.165 53.443 310.938C53.618 314.072 54.573 316.901 57.071 319C58.201 319.949 59.419 320.923 61.017 320.248C62.646 319.574 63.309 318.113 63.34 316.452C63.383 314.473 63.29 312.474 63.159 310.495C62.934 307.043 63.059 303.765 66.606 301.816L67.068 301.397C70.79 297.708 71.177 293.835 68.592 289.252C66.694 285.88 65.826 282.302 67.524 278.463C68.192 276.951 68.749 275.284 68.867 273.649C68.973 272.05 68.829 270.233 68.137 268.835C66.794 266.138 65.028 263.64 63.36 261.105C60.744 257.134 59.264 253.083 62.08 248.561L62.467 247.706C65.139 242.83 65.376 237.959 62.355 233.133C61.431 231.658 61.312 230.242 62.349 228.756C64.278 226.021 63.897 223.286 62.392 220.488C61.499 218.84 60.725 217.104 60.1 215.343C58.901 211.971 59.988 209.922 64.003 208.499C65.595 210.234 67.312 212.201 69.123 214.081C71.814 216.865 75.161 217.939 78.858 216.885C81.643 216.092 83.291 217.247 84.646 219.295C86.088 221.481 87.312 223.803 88.792 225.951C89.972 227.655 91.258 229.335 92.757 230.759C94.324 232.264 95.548 232.064 97.115 230.552C100.025 227.719 100.649 227.668 103.428 230.559C104.952 232.164 106.594 233.306 108.892 233.033C110.609 232.82 111.702 233.538 112.382 235.043C113.837 238.277 115.398 241.468 116.734 244.746C118.408 248.867 121.174 250.166 125.164 248.48C125.738 248.237 126.301 247.956 126.887 247.718C129.141 246.807 129.372 246.762 130.665 248.947C132.257 251.638 133.712 254.424 135.048 257.258C136.84 261.037 139.787 263.515 143.765 264.214C146.187 264.645 147.461 265.782 148.435 267.748C148.941 268.779 149.553 269.766 150.059 270.796C152.407 275.56 155.067 280.006 160.555 281.774L161.604 282.448C164.308 284.321 166.862 286.262 167.043 290.009C167.23 293.732 168.753 297.09 170.14 300.487C171.089 302.804 172.469 304.671 174.705 305.87C176.522 306.85 177.758 308.311 178.482 310.285C179.175 312.145 180.012 313.962 180.892 315.735C182.122 318.196 184.357 319.726 185.925 319.313C187.555 318.882 188.416 317.09 188.335 314.012C188.304 312.663 187.611 311.165 188.004 309.996C189.011 307.006 188.143 304.178 187.693 301.331ZM92.428 168.164C91.779 168.576 90.954 168.745 90.186 168.914C88.481 169.313 86.702 169.482 85.047 170.032C83.174 170.657 81.319 171.443 79.596 172.417C78.272 173.173 76.992 174.178 76.037 175.345C74.663 177.037 73.046 178.211 70.835 179.098C70.085 178.468 69.368 177.724 68.525 177.156C64.828 174.664 62.593 174.484 59.64 176.7C58.834 177.306 57.891 177.712 56.299 178.611C56.599 176.638 56.68 175.352 57.011 174.134C57.317 173.035 57.941 172.03 58.347 170.956C59.596 167.659 59.215 166.279 56.205 164.368C54.969 163.588 54.5 162.688 54.532 161.303C54.582 159.211 54.551 157.113 54.538 155.015C54.526 151.924 53.295 149.614 50.411 148.221C48.475 147.284 48.307 146.61 48.782 144.462C49.081 143.151 49.331 141.802 49.481 140.46C50.012 135.939 47.752 132.792 44.43 130.113C43.862 129.657 43.281 128.789 43.3 128.121C43.375 124.918 42.307 121.715 43.563 118.499C44.356 116.457 43.063 114.821 41.677 113.503C39.504 111.455 39.248 108.97 39.785 106.285C40.228 104.025 41.265 103.344 43.532 103.656C44.15 103.75 44.8 103.762 45.392 103.937C50.538 105.492 54.59 103.538 58.174 100.016C58.767 99.429 59.391 98.86 59.972 98.261C61.939 96.225 64.368 95.507 67.116 95.795C68.889 95.976 70.637 96.4 72.405 96.494C74.69 96.619 76.976 96.532 79.523 96.532C84.518 105.604 86.66 106.691 94.353 103.893C96.201 105.76 98.28 107.453 96.925 110.749C96.307 112.267 96.869 113.884 97.949 115.151C99.435 116.906 100.921 118.667 102.551 120.284C103.656 121.389 105.005 122.251 106.273 123.244C105.461 124.586 105.074 125.298 104.618 125.954C102.764 128.633 102.395 130.506 104.412 132.816C107.197 135.994 105.736 139.341 105.573 142.682L105.18 143.506C103.195 145.742 101.171 147.958 99.192 150.2C97.232 152.417 96.645 155.189 96.195 157.98C95.933 159.628 95.84 161.309 95.577 162.963C95.231 165.104 94.326 166.977 92.428 168.164Z" fill="#11B0C8"/>
</svg>
